<?xml version="1.0" encoding="UTF-8"?>
<!DOCTYPE svg PUBLIC "-//W3C//DTD SVG 1.1//EN" "http://www.w3.org/Graphics/SVG/1.1/DTD/svg11.dtd">
<!-- Creator: CorelDRAW 2021.5 -->
<svg xmlns="http://www.w3.org/2000/svg" xml:space="preserve" width="600px" height="300px" version="1.1" style="shape-rendering:geometricPrecision; text-rendering:geometricPrecision; image-rendering:optimizeQuality; fill-rule:evenodd; clip-rule:evenodd"
viewBox="0 0 158.36 79.18"
 xmlns:xlink="http://www.w3.org/1999/xlink"
 xmlns:xodm="http://www.corel.com/coreldraw/odm/2003">
 <defs>
  <style type="text/css">
   <![CDATA[
    .fil0 {fill:none}
    .fil2 {fill:#23A455}
    .fil4 {fill:#999999}
    .fil3 {fill:#CCCCCC}
    .fil5 {fill:white}
    .fil1 {fill:white;fill-rule:nonzero}
   ]]>
  </style>
 </defs>
 <g id="Слой_x0020_1">
  <metadata id="CorelCorpID_0Corel-Layer"/>
  <rect class="fil0" width="158.36" height="79.18"/>
  <path class="fil1" d="M32.02 56.24c0,-0.8 -0.29,-1.47 -0.89,-2.04 -0.57,-0.59 -1.31,-0.91 -2.2,-0.96 -0.64,-0.05 -1.15,-0.07 -1.51,-0.07l-4.68 0 0 12.43 6.07 0c1.06,0 1.93,-0.32 2.63,-0.96 0.7,-0.65 1.06,-1.43 1.06,-2.38 0,-1.42 -0.97,-2.64 -2.39,-3.16 1.13,-0.55 1.91,-1.65 1.91,-2.86zm-6.18 4.14l2.01 0c0.85,0 1.54,0.64 1.54,1.44 0,0.8 -0.69,1.44 -1.54,1.44l-2.01 0 0 -2.88zm3.27 -3.53c0,0.76 -0.66,1.35 -1.4,1.35l-1.87 0 0 -2.67 1.87 0c0.74,0 1.4,0.59 1.4,1.32z"/>
  <polygon id="_1" class="fil1" points="44.4,65.6 44.4,62.85 38.88,62.85 38.88,53.17 35.78,53.17 35.78,65.6 "/>
  <path id="_2" class="fil1" d="M50.74 53.17l-4.49 12.43 3.14 0 0.75 -2.11 4.74 0 0.78 2.11 3.11 0 -4.46 -12.43 -3.57 0zm3.31 7.89l-3.08 0 1.53 -4.25 1.55 4.25z"/>
  <path id="_3" class="fil1" d="M67.14 63.03c-1.07,0 -1.91,-0.36 -2.58,-1.07 -0.65,-0.71 -0.97,-1.56 -0.97,-2.57 0,-1.02 0.32,-1.87 0.97,-2.56 0.67,-0.71 1.51,-1.07 2.58,-1.07 1.31,0 2.45,0.34 3.44,1l1.24 -2.45c-1.35,-0.95 -2.9,-1.41 -4.68,-1.41 -2.04,0 -3.68,0.62 -4.89,1.85 -1.21,1.23 -1.8,2.77 -1.8,4.64 0,1.86 0.59,3.42 1.8,4.65 1.21,1.23 2.85,1.83 4.89,1.83 1.78,0 3.35,-0.46 4.68,-1.39l-1.24 -2.45c-0.99,0.66 -2.13,1 -3.44,1z"/>
  <path id="_4" class="fil1" d="M85.98 65.6l-4.77 -6.32 4.31 -6.11 -3.59 0 -4.18 6.11 4.36 6.32 3.87 0zm-8.32 0l0 -12.43 -3.1 0 0 12.43 3.1 0z"/>
  <polygon id="_5" class="fil1" points="88.74,53.17 88.74,65.6 91.59,65.6 91.59,57.44 94.56,62.26 95.71,62.26 98.71,57.44 98.71,65.6 101.55,65.6 101.55,53.17 98.52,53.17 95.14,58.56 91.75,53.17 "/>
  <polygon id="_6" class="fil1" points="108.42,65.6 108.42,53.17 105.32,53.17 105.32,65.6 "/>
  <polygon id="_7" class="fil1" points="119.97,65.6 123.09,65.6 123.09,53.17 119.97,53.17 119.97,60.49 115.28,53.17 112.18,53.17 112.18,65.6 115.28,65.6 115.28,58.32 "/>
  <polygon id="_8" class="fil1" points="129.95,62.92 129.95,60.58 134.47,60.58 134.47,58.02 129.95,58.02 129.95,55.87 135.57,55.87 135.57,53.17 126.85,53.17 126.85,65.6 135.63,65.6 135.63,62.92 "/>
  <polygon class="fil2" points="79.15,24.72 71.09,20.04 79.19,15.44 87.34,20.11 "/>
  <polygon class="fil3" points="79.19,37.42 79.19,45.86 97.83,34.97 97.83,26.06 90.46,21.91 90.46,30.71 "/>
  <polygon class="fil4" points="60.95,14.39 68.04,18.45 68.04,31.07 79.19,37.42 79.19,45.86 60.67,35.25 "/>
  <polygon class="fil5" points="60.95,14.39 79.15,3.74 87.34,8.39 87.35,16.73 79.15,12.01 68.04,18.45 "/>
  <polygon class="fil5" points="90.32,18.45 97.7,14.27 90.34,10.01 "/>
  <polygon class="fil3" points="90.32,18.45 97.71,22.54 97.7,14.27 "/>
  <polygon class="fil4" points="79.15,24.72 79.06,33.93 70.98,29.32 71.09,20.04 "/>
  <polygon class="fil3" points="79.15,24.72 79.06,33.93 87.37,29.4 87.34,20.11 "/>
 </g>
</svg>
