<?xml version="1.0" encoding="UTF-8"?>
<!DOCTYPE svg PUBLIC "-//W3C//DTD SVG 1.1//EN" "http://www.w3.org/Graphics/SVG/1.1/DTD/svg11.dtd">
<!-- Creator: CorelDRAW 2021.5 -->
<svg xmlns="http://www.w3.org/2000/svg" xml:space="preserve" width="600px" height="300px" version="1.1" style="shape-rendering:geometricPrecision; text-rendering:geometricPrecision; image-rendering:optimizeQuality; fill-rule:evenodd; clip-rule:evenodd"
viewBox="0 0 348.45 174.23"
 xmlns:xlink="http://www.w3.org/1999/xlink"
 xmlns:xodm="http://www.corel.com/coreldraw/odm/2003">
 <defs>
  <style type="text/css">
   <![CDATA[
    .fil0 {fill:none}
    .fil3 {fill:black}
    .fil1 {fill:#1A1A1A}
    .fil4 {fill:#23A455}
    .fil2 {fill:#4D4D4D}
    .fil5 {fill:black;fill-rule:nonzero}
   ]]>
  </style>
 </defs>
 <g id="Слой_x0020_1">
  <metadata id="CorelCorpID_0Corel-Layer"/>
  <rect class="fil0" width="348.45" height="174.23"/>
  <polygon class="fil1" points="174.24,82.33 174.24,100.91 215.26,76.96 215.27,57.35 199.05,48.21 199.03,67.58 "/>
  <polygon class="fil2" points="134.1,31.67 149.72,40.59 149.72,68.36 174.24,82.33 174.24,100.91 133.49,77.55 "/>
  <polygon class="fil3" points="134.1,31.67 174.15,8.23 192.18,18.46 192.21,36.82 174.15,26.44 149.72,40.59 "/>
  <polygon class="fil3" points="198.74,40.59 214.97,31.4 198.77,22.02 "/>
  <polygon class="fil1" points="198.74,40.59 215,49.6 214.97,31.4 "/>
  <polygon class="fil4" points="174.15,54.38 156.43,44.09 174.24,33.97 192.18,44.24 "/>
  <polygon class="fil2" points="174.15,54.39 173.97,74.66 156.18,64.51 156.43,44.09 "/>
  <polygon class="fil1" points="174.15,54.39 173.97,74.66 192.24,64.68 192.18,44.24 "/>
  <polygon class="fil1" points="174.24,82.33 174.24,100.91 215.26,76.96 215.27,57.35 199.05,48.21 199.03,67.58 "/>
  <polygon class="fil2" points="134.1,31.67 149.72,40.59 149.72,68.36 174.24,82.33 174.24,100.91 133.49,77.55 "/>
  <polygon class="fil3" points="134.1,31.67 174.15,8.23 192.18,18.46 192.21,36.82 174.15,26.44 149.72,40.59 "/>
  <polygon class="fil3" points="198.74,40.59 214.97,31.4 198.77,22.02 "/>
  <polygon class="fil1" points="198.74,40.59 215,49.6 214.97,31.4 "/>
  <polygon class="fil4" points="174.15,54.38 156.43,44.09 174.24,33.97 192.18,44.24 "/>
  <polygon class="fil2" points="174.15,54.39 173.97,74.66 156.18,64.51 156.43,44.09 "/>
  <polygon class="fil1" points="174.15,54.39 173.97,74.66 192.24,64.68 192.18,44.24 "/>
  <path class="fil5" d="M70.45 123.75c0,-1.76 -0.64,-3.24 -1.95,-4.49 -1.27,-1.29 -2.89,-2 -4.83,-2.12 -1.43,-0.11 -2.54,-0.15 -3.33,-0.15l-10.31 0 0 27.36 13.36 0c2.34,0 4.24,-0.7 5.79,-2.11 1.54,-1.45 2.34,-3.17 2.34,-5.24 0,-3.12 -2.14,-5.82 -5.28,-6.96 2.5,-1.21 4.21,-3.63 4.21,-6.29zm-13.6 9.11l4.44 0c1.86,0 3.37,1.41 3.37,3.17 0,1.75 -1.51,3.16 -3.37,3.16l-4.44 0 0 -6.33zm7.21 -7.78c0,1.68 -1.46,2.97 -3.09,2.97l-4.12 0 0 -5.86 4.12 0c1.63,0 3.09,1.29 3.09,2.89z"/>
  <polygon id="_1" class="fil5" points="97.68,144.35 97.68,138.29 85.55,138.29 85.55,116.99 78.73,116.99 78.73,144.35 "/>
  <path id="_2" class="fil5" d="M111.64 116.99l-9.87 27.36 6.9 0 1.66 -4.65 10.43 0 1.71 4.65 6.85 0 -9.83 -27.36 -7.85 0zm7.3 17.35l-6.78 0 3.37 -9.34 3.41 9.34z"/>
  <path id="_3" class="fil5" d="M147.72 138.68c-2.34,0 -4.2,-0.78 -5.67,-2.34 -1.43,-1.57 -2.14,-3.44 -2.14,-5.67 0,-2.23 0.71,-4.1 2.14,-5.63 1.47,-1.56 3.33,-2.34 5.67,-2.34 2.9,0 5.39,0.74 7.57,2.18l2.74 -5.39c-2.97,-2.07 -6.38,-3.09 -10.31,-3.09 -4.48,0 -8.09,1.37 -10.74,4.07 -2.66,2.69 -3.97,6.1 -3.97,10.2 0,4.1 1.31,7.54 3.97,10.24 2.65,2.7 6.26,4.03 10.74,4.03 3.93,0 7.38,-1.02 10.31,-3.05l-2.74 -5.4c-2.18,1.45 -4.67,2.19 -7.57,2.19z"/>
  <path id="_4" class="fil5" d="M189.19 144.35l-10.5 -13.91 9.47 -13.45 -7.89 0 -9.2 13.45 9.6 13.91 8.52 0zm-18.31 0l0 -27.36 -6.82 0 0 27.36 6.82 0z"/>
  <polygon id="_5" class="fil5" points="195.26,116.99 195.26,144.35 201.52,144.35 201.52,126.38 208.07,136.99 210.6,136.99 217.19,126.38 217.19,144.35 223.45,144.35 223.45,116.99 216.79,116.99 209.34,128.85 201.88,116.99 "/>
  <polygon id="_6" class="fil5" points="238.56,144.35 238.56,116.99 231.74,116.99 231.74,144.35 "/>
  <polygon id="_7" class="fil5" points="263.97,144.35 270.83,144.35 270.83,116.99 263.97,116.99 263.97,133.09 253.66,116.99 246.84,116.99 246.84,144.35 253.66,144.35 253.66,128.32 "/>
  <polygon id="_8" class="fil5" points="285.94,138.45 285.94,133.29 295.89,133.29 295.89,127.66 285.94,127.66 285.94,122.93 298.31,122.93 298.31,116.99 279.12,116.99 279.12,144.35 298.43,144.35 298.43,138.45 "/>
  <polygon class="fil1" points="174.24,82.33 174.24,100.91 215.26,76.96 215.27,57.35 199.05,48.21 199.03,67.58 "/>
  <polygon class="fil2" points="134.1,31.67 149.72,40.59 149.72,68.36 174.24,82.33 174.24,100.91 133.49,77.55 "/>
  <polygon class="fil3" points="134.1,31.67 174.15,8.23 192.18,18.46 192.21,36.82 174.15,26.44 149.72,40.59 "/>
  <polygon class="fil3" points="198.74,40.59 214.97,31.4 198.77,22.02 "/>
  <polygon class="fil1" points="198.74,40.59 215,49.6 214.97,31.4 "/>
  <polygon class="fil4" points="174.15,54.38 156.43,44.09 174.24,33.97 192.18,44.24 "/>
  <polygon class="fil2" points="174.15,54.39 173.97,74.66 156.18,64.51 156.43,44.09 "/>
  <polygon class="fil1" points="174.15,54.39 173.97,74.66 192.24,64.68 192.18,44.24 "/>
  <polygon class="fil1" points="174.24,82.33 174.24,100.91 215.26,76.96 215.27,57.35 199.05,48.21 199.03,67.58 "/>
  <polygon class="fil2" points="134.1,31.67 149.72,40.59 149.72,68.36 174.24,82.33 174.24,100.91 133.49,77.55 "/>
  <polygon class="fil3" points="134.1,31.67 174.15,8.23 192.18,18.46 192.21,36.82 174.15,26.44 149.72,40.59 "/>
  <polygon class="fil3" points="198.74,40.59 214.97,31.4 198.77,22.02 "/>
  <polygon class="fil1" points="198.74,40.59 215,49.6 214.97,31.4 "/>
  <polygon class="fil4" points="174.15,54.38 156.43,44.09 174.24,33.97 192.18,44.24 "/>
  <polygon class="fil2" points="174.15,54.39 173.97,74.66 156.18,64.51 156.43,44.09 "/>
  <polygon class="fil1" points="174.15,54.39 173.97,74.66 192.24,64.68 192.18,44.24 "/>
  <path class="fil5" d="M70.45 123.75c0,-1.76 -0.64,-3.24 -1.95,-4.49 -1.27,-1.29 -2.89,-2 -4.83,-2.12 -1.43,-0.11 -2.54,-0.15 -3.33,-0.15l-10.31 0 0 27.36 13.36 0c2.34,0 4.24,-0.7 5.79,-2.11 1.54,-1.45 2.34,-3.17 2.34,-5.24 0,-3.12 -2.14,-5.82 -5.28,-6.96 2.5,-1.21 4.21,-3.63 4.21,-6.29zm-13.6 9.11l4.44 0c1.86,0 3.37,1.41 3.37,3.17 0,1.75 -1.51,3.16 -3.37,3.16l-4.44 0 0 -6.33zm7.21 -7.78c0,1.68 -1.46,2.97 -3.09,2.97l-4.12 0 0 -5.86 4.12 0c1.63,0 3.09,1.29 3.09,2.89z"/>
  <polygon id="_1_0" class="fil5" points="97.68,144.35 97.68,138.29 85.55,138.29 85.55,116.99 78.73,116.99 78.73,144.35 "/>
  <path id="_2_1" class="fil5" d="M111.64 116.99l-9.87 27.36 6.9 0 1.66 -4.65 10.43 0 1.71 4.65 6.85 0 -9.83 -27.36 -7.85 0zm7.3 17.35l-6.78 0 3.37 -9.34 3.41 9.34z"/>
  <path id="_3_2" class="fil5" d="M147.72 138.68c-2.34,0 -4.2,-0.78 -5.67,-2.34 -1.43,-1.57 -2.14,-3.44 -2.14,-5.67 0,-2.23 0.71,-4.1 2.14,-5.63 1.47,-1.56 3.33,-2.34 5.67,-2.34 2.9,0 5.39,0.74 7.57,2.18l2.74 -5.39c-2.97,-2.07 -6.38,-3.09 -10.31,-3.09 -4.48,0 -8.09,1.37 -10.74,4.07 -2.66,2.69 -3.97,6.1 -3.97,10.2 0,4.1 1.31,7.54 3.97,10.24 2.65,2.7 6.26,4.03 10.74,4.03 3.93,0 7.38,-1.02 10.31,-3.05l-2.74 -5.4c-2.18,1.45 -4.67,2.19 -7.57,2.19z"/>
  <path id="_4_3" class="fil5" d="M189.19 144.35l-10.5 -13.91 9.47 -13.45 -7.89 0 -9.2 13.45 9.6 13.91 8.52 0zm-18.31 0l0 -27.36 -6.82 0 0 27.36 6.82 0z"/>
  <polygon id="_5_4" class="fil5" points="195.26,116.99 195.26,144.35 201.52,144.35 201.52,126.38 208.07,136.99 210.6,136.99 217.19,126.38 217.19,144.35 223.45,144.35 223.45,116.99 216.79,116.99 209.34,128.85 201.88,116.99 "/>
  <polygon id="_6_5" class="fil5" points="238.56,144.35 238.56,116.99 231.74,116.99 231.74,144.35 "/>
  <polygon id="_7_6" class="fil5" points="263.97,144.35 270.83,144.35 270.83,116.99 263.97,116.99 263.97,133.09 253.66,116.99 246.84,116.99 246.84,144.35 253.66,144.35 253.66,128.32 "/>
  <polygon id="_8_7" class="fil5" points="285.94,138.45 285.94,133.29 295.89,133.29 295.89,127.66 285.94,127.66 285.94,122.93 298.31,122.93 298.31,116.99 279.12,116.99 279.12,144.35 298.43,144.35 298.43,138.45 "/>
 </g>
</svg>
